<?xml version="1.0" standalone="no"?>
<svg viewBox="0 0 200 200" xmlns="http://www.w3.org/2000/svg">
  <path fill="#FF6600" d="M43.6,-74.9C57.8,-67.3,71.5,-58.2,80.7,-45.5C89.9,-32.8,94.6,-16.4,92.4,-1.3C90.2,13.9,81.1,27.7,72.1,40.8C63.1,53.9,54.2,66.2,42.2,72.9C30.2,79.6,15.1,80.6,-0.5,81.6C-16.2,82.5,-32.3,83.2,-43.3,76C-54.3,68.7,-60.2,53.4,-66.3,39.4C-72.5,25.4,-79.1,12.7,-82,-1.7C-84.9,-16.1,-84.2,-32.1,-76.3,-43.2C-68.4,-54.3,-53.4,-60.3,-39.5,-68C-25.5,-75.8,-12.8,-85.2,1,-86.9C14.7,-88.5,29.4,-82.5,43.6,-74.9Z" transform="translate(100 100)" />
</svg>
